{
    "asset": {
        "generator": "COLLADA2GLTF",
        "version": "2.0"
    },
    "scenes": [
        {
            "nodes": [
                0
            ]
        }
    ],
    "scene": 0,
    "nodes": [
        {
            "children": [
                10,
                9,
                8,
                7,
                6,
                5,
                4,
                3,
                2,
                1
            ],
            "name": "Y_UP"
        },
        {
            "matrix": [
                0.7071066498756409,
                -2.980230995319744e-8,
                -0.7071065306663513,
                0.0,
                -0.4999999105930329,
                0.7071066498756409,
                -0.49999985098838808,
                0.0,
                0.49999985098838808,
                0.7071065306663513,
                0.5,
                0.0,
                2.4999992847442629,
                3.535533666610718,
                2.499999523162842,
                0.9999999403953552
            ],
            "camera": 0,
            "name": "S3D-RENDER_CAM_NODE"
        },
        {
            "matrix": [
                0.7071066498756409,
                -2.980230995319744e-8,
                -0.7071065306663513,
                0.0,
                -0.4999999105930329,
                0.7071066498756409,
                -0.49999985098838808,
                0.0,
                0.49999985098838808,
                0.7071065306663513,
                0.5,
                0.0,
                2.4999992847442629,
                3.535533666610718,
                2.499999523162842,
                0.9999999403953552
            ],
            "camera": 1,
            "name": "S3D-ANIM_CAM_NODE"
        },
        {
            "mesh": 0,
            "matrix": [
                0.04900886118412018,
                0.05449322238564491,
                0.01655399426817894,
                0.0,
                -0.1607326716184616,
                0.1929696798324585,
                -0.15937024354934693,
                0.0,
                -0.0434909425675869,
                0.0188541766256094,
                0.06669188290834427,
                0.0,
                0.2201768159866333,
                4.647351264953613,
                -0.14539940655231477,
                1.0
            ],
            "name": "Cube-S3D-37-FLIPPED"
        },
        {
            "mesh": 1,
            "matrix": [
                0.03777206316590309,
                -0.024744858965277673,
                0.06465429067611695,
                0.0,
                -0.190224751830101,
                0.1678437441587448,
                0.17537039518356324,
                0.0,
                -0.05544047802686691,
                -0.06905892491340637,
                0.00595857622101903,
                0.0,
                0.2142859250307083,
                4.642452716827393,
                0.12812751531600953,
                1.0
            ],
            "name": "Cube-S3D-36-FLIPPED"
        },
        {
            "mesh": 2,
            "matrix": [
                -0.12411397695541382,
                -0.27748849987983706,
                0.0,
                0.0,
                0.5295982360839844,
                -0.23687663674354554,
                0.0,
                0.0,
                0.0,
                0.0,
                0.783224880695343,
                0.0,
                0.0,
                3.654427289962769,
                0.0,
                1.0
            ],
            "name": "Tounge-S3D-35"
        },
        {
            "mesh": 3,
            "matrix": [
                -0.0952766016125679,
                0.5283466577529907,
                0.01627464219927788,
                0.0,
                -0.030690567567944528,
                -0.015876373276114465,
                0.3357453644275666,
                0.0,
                0.2836104929447174,
                0.05027160793542862,
                0.028302093967795373,
                0.0,
                0.6089015007019043,
                3.3924765586853029,
                -0.29867643117904665,
                1.0
            ],
            "name": "Mouth-S3D-34"
        },
        {
            "mesh": 4,
            "matrix": [
                0.13000620901584626,
                0.0,
                0.0,
                0.0,
                0.0,
                0.22220903635025025,
                0.0,
                0.0,
                0.0,
                0.0,
                0.22220903635025025,
                0.0,
                0.4321596026420593,
                4.302189826965332,
                0.0,
                1.0
            ],
            "name": "Pupil-S3D-29-SMOOTHED"
        },
        {
            "mesh": 5,
            "matrix": [
                0.3003023564815521,
                0.0,
                0.0,
                0.0,
                0.0,
                0.3003023564815521,
                0.0,
                0.0,
                0.0,
                0.0,
                0.3003023564815521,
                0.0,
                0.2909630239009857,
                4.284043312072754,
                0.0,
                1.0
            ],
            "name": "Eye-S3D-28-SMOOTHED"
        },
        {
            "mesh": 6,
            "matrix": [
                1.0,
                0.0,
                0.0,
                0.0,
                0.0,
                2.676403045654297,
                0.0,
                0.0,
                0.0,
                0.0,
                1.0,
                0.0,
                0.0,
                2.3934457302093508,
                0.0,
                1.0
            ],
            "name": "Umbrella-S3D-27"
        },
        {
            "mesh": 7,
            "matrix": [
                -0.20109675824642185,
                0.011689071543514729,
                -0.6259775757789612,
                0.0,
                0.023072967305779458,
                -0.9147915244102478,
                -0.02449443191289902,
                0.0,
                -0.7631197571754456,
                -0.025798821821808816,
                0.2446722835302353,
                0.0,
                0.012242525815963744,
                2.6238956451416017,
                0.014725565910339356,
                1.0
            ],
            "name": "Foot-S3D-26"
        }
    ],
    "cameras": [
        {
            "perspective": {
                "yfov": 1.1907066106796265,
                "zfar": 1.0,
                "znear": 0.0
            },
            "type": "perspective",
            "name": "S3D-RENDER_CAM_NODE"
        },
        {
            "perspective": {
                "yfov": 1.1907066106796265,
                "zfar": 1.0,
                "znear": 0.0
            },
            "type": "perspective",
            "name": "S3D-ANIM_CAM_NODE"
        }
    ],
    "meshes": [
        {
            "primitives": [
                {
                    "attributes": {
                        "POSITION": 1
                    },
                    "indices": 0,
                    "mode": 4,
                    "material": 0
                }
            ],
            "name": "Cube-S3D-37-FLIPPED"
        },
        {
            "primitives": [
                {
                    "attributes": {
                        "POSITION": 3
                    },
                    "indices": 2,
                    "mode": 4,
                    "material": 1
                }
            ],
            "name": "Cube-S3D-36-FLIPPED"
        },
        {
            "primitives": [
                {
                    "attributes": {
                        "POSITION": 5
                    },
                    "indices": 4,
                    "mode": 4,
                    "material": 2
                }
            ],
            "name": "Tounge-S3D-35"
        },
        {
            "primitives": [
                {
                    "attributes": {
                        "POSITION": 7
                    },
                    "indices": 6,
                    "mode": 4,
                    "material": 3
                }
            ],
            "name": "Mouth-S3D-34"
        },
        {
            "primitives": [
                {
                    "attributes": {
                        "POSITION": 9
                    },
                    "indices": 8,
                    "mode": 4,
                    "material": 4
                }
            ],
            "name": "Pupil-S3D-29-SMOOTHED"
        },
        {
            "primitives": [
                {
                    "attributes": {
                        "POSITION": 11
                    },
                    "indices": 10,
                    "mode": 4,
                    "material": 5
                }
            ],
            "name": "Eye-S3D-28-SMOOTHED"
        },
        {
            "primitives": [
                {
                    "attributes": {
                        "POSITION": 13
                    },
                    "indices": 12,
                    "mode": 4,
                    "material": 6
                }
            ],
            "name": "Umbrella-S3D-27"
        },
        {
            "primitives": [
                {
                    "attributes": {
                        "POSITION": 15
                    },
                    "indices": 14,
                    "mode": 4,
                    "material": 7
                }
            ],
            "name": "Foot-S3D-26"
        }
    ],
    "accessors": [
        {
            "bufferView": 0,
            "byteOffset": 0,
            "componentType": 5123,
            "count": 144,
            "max": [
                25
            ],
            "min": [
                0
            ],
            "type": "SCALAR"
        },
        {
            "bufferView": 1,
            "byteOffset": 0,
            "componentType": 5126,
            "count": 26,
            "max": [
                0.5,
                0.5,
                0.5
            ],
            "min": [
                -0.5,
                -0.5,
                -0.5
            ],
            "type": "VEC3"
        },
        {
            "bufferView": 0,
            "byteOffset": 288,
            "componentType": 5123,
            "count": 144,
            "max": [
                25
            ],
            "min": [
                0
            ],
            "type": "SCALAR"
        },
        {
            "bufferView": 1,
            "byteOffset": 312,
            "componentType": 5126,
            "count": 26,
            "max": [
                0.5,
                0.5,
                0.5
            ],
            "min": [
                -0.5,
                -0.5,
                -0.5
            ],
            "type": "VEC3"
        },
        {
            "bufferView": 0,
            "byteOffset": 576,
            "componentType": 5123,
            "count": 36864,
            "max": [
                6145
            ],
            "min": [
                0
            ],
            "type": "SCALAR"
        },
        {
            "bufferView": 1,
            "byteOffset": 624,
            "componentType": 5126,
            "count": 6146,
            "max": [
                0.45458072423934939,
                2.400470733642578,
                0.4630003273487091
            ],
            "min": [
                -0.5145108103752136,
                0.0,
                -0.4630003869533539
            ],
            "type": "VEC3"
        },
        {
            "bufferView": 0,
            "byteOffset": 74304,
            "componentType": 5123,
            "count": 9216,
            "max": [
                1537
            ],
            "min": [
                0
            ],
            "type": "SCALAR"
        },
        {
            "bufferView": 1,
            "byteOffset": 74376,
            "componentType": 5126,
            "count": 1538,
            "max": [
                0.561150312423706,
                2.519848346710205,
                0.4442569315433502
            ],
            "min": [
                -0.43891796469688418,
                -0.6227964162826538,
                -0.7000048160552979
            ],
            "type": "VEC3"
        },
        {
            "bufferView": 0,
            "byteOffset": 92736,
            "componentType": 5123,
            "count": 3840,
            "max": [
                641
            ],
            "min": [
                0
            ],
            "type": "SCALAR"
        },
        {
            "bufferView": 1,
            "byteOffset": 92832,
            "componentType": 5126,
            "count": 642,
            "max": [
                0.7470848560333252,
                0.7470848560333252,
                0.7470848560333252
            ],
            "min": [
                -0.7470848560333252,
                -0.7470848560333252,
                -0.7470848560333252
            ],
            "type": "VEC3"
        },
        {
            "bufferView": 0,
            "byteOffset": 100416,
            "componentType": 5123,
            "count": 3840,
            "max": [
                641
            ],
            "min": [
                0
            ],
            "type": "SCALAR"
        },
        {
            "bufferView": 1,
            "byteOffset": 100536,
            "componentType": 5126,
            "count": 642,
            "max": [
                0.7470848560333252,
                0.7470848560333252,
                0.7470848560333252
            ],
            "min": [
                -0.7470848560333252,
                -0.7470848560333252,
                -0.7470848560333252
            ],
            "type": "VEC3"
        },
        {
            "bufferView": 0,
            "byteOffset": 108096,
            "componentType": 5123,
            "count": 1440,
            "max": [
                241
            ],
            "min": [
                0
            ],
            "type": "SCALAR"
        },
        {
            "bufferView": 1,
            "byteOffset": 108240,
            "componentType": 5126,
            "count": 242,
            "max": [
                0.8712435364723206,
                1.0,
                0.8685702085494995
            ],
            "min": [
                -0.8676332235336304,
                -0.1672590970993042,
                -0.8535783290863037
            ],
            "type": "VEC3"
        },
        {
            "bufferView": 0,
            "byteOffset": 110976,
            "componentType": 5123,
            "count": 19392,
            "max": [
                3233
            ],
            "min": [
                0
            ],
            "type": "SCALAR"
        },
        {
            "bufferView": 1,
            "byteOffset": 111144,
            "componentType": 5126,
            "count": 3234,
            "max": [
                0.5869923830032349,
                3.104523181915283,
                0.430848628282547
            ],
            "min": [
                -0.683870792388916,
                0.000994083471596241,
                -0.7771474123001099
            ],
            "type": "VEC3"
        }
    ],
    "materials": [
        {
            "pbrMetallicRoughness": {
                "baseColorFactor": [
                    0.4897260069847107,
                    0.14255723357200626,
                    0.14255723357200626,
                    1.0
                ],
                "metallicFactor": 0.0
            },
            "emissiveFactor": [
                1.0,
                1.0,
                1.0
            ],
            "name": "lambertian"
        },
        {
            "pbrMetallicRoughness": {
                "baseColorFactor": [
                    0.4901960790157318,
                    0.1411764770746231,
                    0.1411764770746231,
                    1.0
                ],
                "metallicFactor": 0.0
            },
            "emissiveFactor": [
                1.0,
                1.0,
                1.0
            ],
            "name": "lambertian"
        },
        {
            "pbrMetallicRoughness": {
                "baseColorFactor": [
                    0.7602739930152893,
                    0.4530399441719055,
                    0.75661700963974,
                    1.0
                ],
                "metallicFactor": 0.0
            },
            "emissiveFactor": [
                1.0,
                1.0,
                1.0
            ],
            "name": "lambertian"
        },
        {
            "pbrMetallicRoughness": {
                "baseColorFactor": [
                    9.999999974752428e-7,
                    0.0,
                    0.0,
                    1.0
                ],
                "metallicFactor": 0.0
            },
            "emissiveFactor": [
                1.0,
                1.0,
                1.0
            ],
            "name": "lambertian"
        },
        {
            "pbrMetallicRoughness": {
                "baseColorFactor": [
                    9.999999974752428e-7,
                    0.0,
                    0.0,
                    1.0
                ],
                "metallicFactor": 0.0
            },
            "emissiveFactor": [
                1.0,
                1.0,
                1.0
            ],
            "name": "lambertian"
        },
        {
            "pbrMetallicRoughness": {
                "baseColorFactor": [
                    1.0,
                    1.0,
                    1.0,
                    1.0
                ],
                "metallicFactor": 0.0
            },
            "emissiveFactor": [
                1.0,
                1.0,
                1.0
            ],
            "name": "lambertian"
        },
        {
            "pbrMetallicRoughness": {
                "baseColorFactor": [
                    0.17123287916183473,
                    0.1705416738986969,
                    0.15188121795654298,
                    1.0
                ],
                "metallicFactor": 0.0
            },
            "emissiveFactor": [
                1.0,
                1.0,
                1.0
            ],
            "name": "lambertian"
        },
        {
            "pbrMetallicRoughness": {
                "baseColorFactor": [
                    0.6917808055877686,
                    0.097133606672287,
                    0.20686061680316929,
                    1.0
                ],
                "metallicFactor": 0.0
            },
            "emissiveFactor": [
                1.0,
                1.0,
                1.0
            ],
            "name": "lambertian"
        }
    ],
    "bufferViews": [
        {
            "buffer": 0,
            "byteOffset": 149952,
            "byteLength": 149760,
            "target": 34963
        },
        {
            "buffer": 0,
            "byteOffset": 0,
            "byteLength": 149952,
            "byteStride": 12,
            "target": 34962
        }
    ],
    "buffers": [
        {
            "byteLength": 299712,
            "uri": "data:application/octet-stream;base64,"
        }
    ]
}
